<svg width="841" height="150" viewBox="0 0 841 150" fill="none" xmlns="http://www.w3.org/2000/svg">
<path d="M31.5813 143.119C22.0691 110.696 20.4314 108.229 0.640253 50.9591C-0.335365 48.7351 -0.196002 46.5805 1.05837 44.4954C2.75953 41.6677 5.12115 39.8438 7.07239 39.8438H43.613C44.728 39.8438 46.3244 39.754 47.0518 40.1168C48.1668 40.6728 49.0727 41.4373 49.7696 42.4103C50.4665 43.2444 50.8846 44.2174 51.024 45.3294C53.254 57.8399 48.9334 32.819 52.6965 55.7548C56.4596 78.5516 59.3385 88.7198 61.1504 99.5621C61.9866 96.226 69.1426 69.3773 82.8012 5.7131C83.08 3.90603 83.9162 2.44648 85.31 1.33444C86.8431 0.222404 88.5156 -0.194609 90.3275 0.0834052H126.816C129.464 0.0834052 131.652 2.37698 132.767 4.46205C134.161 5.71309 134.648 7.86766 134.23 10.9258L91.1637 144.787C89.77 148.262 87.2612 150 83.6375 150H38.6763C34.7738 150 32.5569 147.15 31.5813 143.119Z" fill="#67B99A"/>
<path d="M823.173 118.751V59.3763H839.6V118.751H823.173ZM831.387 53.5378C828.88 53.5378 826.736 52.6801 824.955 50.9648C823.239 49.1836 822.382 47.0395 822.382 44.5325C822.382 42.0256 823.239 39.9145 824.955 38.1992C826.736 36.418 828.88 35.5273 831.387 35.5273C833.894 35.5273 836.005 36.418 837.72 38.1992C839.501 39.9145 840.392 42.0256 840.392 44.5325C840.392 47.0395 839.501 49.1836 837.72 50.9648C836.005 52.6801 833.894 53.5378 831.387 53.5378Z" fill="black"/>
<path d="M770.987 119.837C763.994 119.837 758.518 118.154 754.56 114.79C750.602 111.359 748.622 106.873 748.622 101.331C748.622 95.4598 750.667 90.9408 754.758 87.7741C758.848 84.6074 764.72 83.0241 772.372 83.0241H789.393V80.748C789.393 74.3487 785.567 71.1491 777.914 71.1491C771.251 71.1491 767.227 73.4581 765.841 78.0762H749.513C750.832 71.5449 753.9 66.597 758.716 63.2324C763.532 59.8678 769.931 58.1855 777.914 58.1855C786.754 58.1855 793.483 60.1647 798.102 64.123C802.786 68.0814 805.128 73.8539 805.128 81.4408V102.519H812.846V118.748H796.221V109.05H792.065C790.02 112.481 787.282 115.153 783.852 117.066C780.421 118.913 776.133 119.837 770.987 119.837ZM773.461 107.368C776.562 107.368 779.299 106.807 781.674 105.686C784.049 104.564 785.93 103.08 787.315 101.232C788.7 99.3192 789.393 97.1751 789.393 94.8001V93.9095H773.164C767.226 93.9095 764.258 96.1196 764.258 100.54C764.258 102.717 765.082 104.399 766.732 105.587C768.381 106.774 770.624 107.368 773.461 107.368Z" fill="black"/>
<path d="M730.83 119.935C728.059 119.935 725.684 118.978 723.705 117.065C721.792 115.086 720.835 112.711 720.835 109.94C720.835 107.169 721.792 104.827 723.705 102.914C725.684 100.935 728.059 99.9453 730.83 99.9453C733.601 99.9453 735.943 100.935 737.856 102.914C739.835 104.827 740.825 107.169 740.825 109.94C740.825 112.711 739.835 115.086 737.856 117.065C735.943 118.978 733.601 119.935 730.83 119.935Z" fill="black"/>
<path d="M649.987 118.752V35.627H666.414V67.8874H666.81C668.723 64.7207 671.296 62.3457 674.529 60.7624C677.761 59.1131 681.588 58.2884 686.008 58.2884C693.463 58.2884 699.367 60.5645 703.721 65.1165C708.142 69.6026 710.352 75.6391 710.352 83.2259V118.752H693.925V86.2936C693.925 81.9395 692.737 78.6408 690.362 76.3978C688.053 74.0888 684.655 72.9342 680.169 72.9342C675.683 72.9342 672.253 74.0888 669.878 76.3978C667.569 78.6408 666.414 81.9395 666.414 86.2936V118.752H649.987Z" fill="black"/>
<path d="M623.197 118.752C618.975 118.752 615.676 117.696 613.301 115.585C610.992 113.408 609.838 110.11 609.838 105.689V72.2415H599.645V59.377H610.036V41.5645H626.067V59.377H639.822V72.2415H626.265V105.887H641.208V118.752H623.197Z" fill="black"/>
<path d="M531.416 118.751V75.6048H523.302V59.3757H539.927V69.0736H544.083C546.392 65.643 549.295 63.0041 552.791 61.1569C556.288 59.2437 560.642 58.2871 565.854 58.2871C574.1 58.2871 580.466 60.5632 584.953 65.1152C589.505 69.6013 591.781 75.6378 591.781 83.2246V118.751H575.354V86.2923C575.354 81.9381 574.166 78.6395 571.791 76.3965C569.482 74.0875 566.084 72.9329 561.598 72.9329C557.112 72.9329 553.682 74.0875 551.307 76.3965C548.998 78.6395 547.843 81.9381 547.843 86.2923V118.751H531.416Z" fill="black"/>
<path d="M460.488 142.5V129.339H473.55L478.202 118.255L452.571 59.375H469.988L486.613 99.3542H487.009L503.238 59.375H520.061L494.629 118.75L489.78 130.229C488.13 134.122 486.217 137.123 484.04 139.234C481.863 141.411 478.531 142.5 474.045 142.5H460.488Z" fill="black"/>
<path d="M415.286 119.939C404.532 119.939 395.956 117.597 389.557 112.913C383.157 108.163 379.661 101.599 379.067 93.2207H396.286C396.88 97.5749 398.826 100.873 402.124 103.117C405.489 105.294 410.107 106.382 415.979 106.382C421.19 106.382 425.116 105.558 427.755 103.908C430.394 102.193 431.713 99.686 431.713 96.3874C431.713 93.8145 430.855 91.7693 429.14 90.252C427.491 88.7346 424.786 87.5801 421.025 86.7884L404.499 83.4238C397.045 81.8405 391.47 79.2346 387.775 75.6061C384.081 71.9117 382.234 67.1287 382.234 61.2572C382.234 53.8023 385.038 47.9638 390.645 43.7415C396.319 39.5193 404.005 37.4082 413.703 37.4082C423.532 37.4082 431.449 39.6183 437.453 44.0384C443.456 48.4586 446.821 54.627 447.546 62.5436H430.328C428.414 54.495 422.576 50.4707 412.812 50.4707C408.392 50.4707 404.928 51.2624 402.421 52.8457C399.914 54.429 398.661 56.7051 398.661 59.6738C398.661 64.2259 401.927 67.1617 408.458 68.4811L425.677 72.0436C433.461 73.627 439.135 76.2988 442.697 80.0592C446.326 83.7537 448.14 88.7676 448.14 95.1009C448.14 102.952 445.27 109.054 439.531 113.408C433.857 117.762 425.775 119.939 415.286 119.939Z" fill="black"/>
<path d="M352 118.751V59.3763H368.427V118.751H352ZM360.214 53.5378C357.707 53.5378 355.563 52.6801 353.781 50.9648C352.066 49.1836 351.208 47.0395 351.208 44.5325C351.208 42.0256 352.066 39.9145 353.781 38.1992C355.563 36.418 357.707 35.5273 360.214 35.5273C362.721 35.5273 364.832 36.418 366.547 38.1992C368.328 39.9145 369.219 42.0256 369.219 44.5325C369.219 47.0395 368.328 49.1836 366.547 50.9648C364.832 52.6801 362.721 53.5378 360.214 53.5378Z" fill="black"/>
<path d="M305.94 118.753V75.6074H297.825V59.3783H314.45V71.0553H318.606C320.19 66.8991 322.696 63.7984 326.127 61.7532C329.558 59.7081 333.417 58.6855 337.705 58.6855H342.752V72.9355H337.012C331.867 72.9355 328.073 74.3869 325.632 77.2897C323.257 80.1925 322.07 84.0189 322.07 88.7689V118.753H305.94Z" fill="black"/>
<path d="M261.835 119.936C255.436 119.936 249.861 118.682 245.111 116.175C240.361 113.602 236.7 110.007 234.127 105.389C231.554 100.705 230.267 95.196 230.267 88.8626C230.267 82.5293 231.521 77.0866 234.028 72.5345C236.535 67.9164 240.097 64.3869 244.715 61.946C249.399 59.439 254.908 58.1855 261.241 58.1855C267.443 58.1855 272.753 59.373 277.174 61.748C281.66 64.123 285.09 67.5206 287.465 71.9407C289.84 76.3609 291.028 81.6387 291.028 87.7741V93.3157H246.002C246.661 97.7359 248.344 101.1 251.049 103.41C253.753 105.719 257.316 106.873 261.736 106.873C265.233 106.873 268.003 106.279 270.049 105.092C272.094 103.904 273.545 102.09 274.403 99.6491H290.83C289.51 105.982 286.311 110.963 281.231 114.592C276.151 118.154 269.686 119.936 261.835 119.936ZM246.398 82.4303H275.293C274.766 78.6699 273.314 75.8661 270.939 74.0189C268.564 72.1057 265.365 71.1491 261.34 71.1491C257.316 71.1491 254.017 72.1057 251.444 74.0189C248.937 75.9321 247.255 78.7359 246.398 82.4303Z" fill="black"/>
<path d="M183.151 118.75L151.187 38.5938H169.594L193.047 99.75H193.541L216.698 38.5938H234.708L202.745 118.75H183.151Z" fill="black"/>
</svg>
